<?xml version="1.0" encoding="UTF-8" standalone="no"?>
<svg
   height="20px"
   viewBox="0 -960 960 960"
   width="20px"
   fill="#FFFFFF"
   version="1.1"
   id="svg1"
   sodipodi:docname="remove_alarm.svg"
   inkscape:version="1.3.2 (091e20ef0f, 2023-11-25, custom)"
   xmlns:inkscape="http://www.inkscape.org/namespaces/inkscape"
   xmlns:sodipodi="http://sodipodi.sourceforge.net/DTD/sodipodi-0.dtd"
   xmlns="http://www.w3.org/2000/svg"
   xmlns:svg="http://www.w3.org/2000/svg">
  <defs
     id="defs1" />
  <sodipodi:namedview
     id="namedview1"
     pagecolor="#505050"
     bordercolor="#eeeeee"
     borderopacity="1"
     inkscape:showpageshadow="0"
     inkscape:pageopacity="0"
     inkscape:pagecheckerboard="0"
     inkscape:deskcolor="#d1d1d1"
     inkscape:zoom="20.7"
     inkscape:cx="9.9758454"
     inkscape:cy="10"
     inkscape:window-width="1882"
     inkscape:window-height="1080"
     inkscape:window-x="38"
     inkscape:window-y="0"
     inkscape:window-maximized="0"
     inkscape:current-layer="svg1" />
  <path
     id="path1"
     d="m 624,-396 v -72 H 336 v 72 z M 480,-96 q -70,0 -131.13,-26.6 -61.14,-26.6 -106.4,-71.87 Q 197.2,-239.73 170.6,-300.87 144,-362 144,-432 q 0,-70 26.6,-131.13 26.6,-61.14 71.87,-106.4 45.26,-45.27 106.4,-71.87 Q 410,-768 480,-768 q 70,0 131.13,26.6 61.14,26.6 106.4,71.87 45.27,45.26 71.87,106.4 Q 816,-502 816,-432 q 0,70 -26.6,131.13 -26.6,61.14 -71.87,106.4 -45.26,45.27 -106.4,71.87 Q 550,-96 480,-96 Z m -243,-749 51,51 -170,170 -51,-51 z m 486,0 170,170 -51,51 -170,-170 z" />
</svg>
