<?xml version="1.0" encoding="UTF-8" standalone="no"?>
<svg
   height="20px"
   viewBox="0 -960 960 960"
   width="20px"
   fill="#FFFFFF"
   version="1.1"
   id="svg1"
   sodipodi:docname="settings_backup_restore_16dp_FFFFFF_FILL0_wght600_GRAD0_opsz20.svg"
   inkscape:version="1.4 (e7c3feb100, 2024-10-09)"
   xmlns:inkscape="http://www.inkscape.org/namespaces/inkscape"
   xmlns:sodipodi="http://sodipodi.sourceforge.net/DTD/sodipodi-0.dtd"
   xmlns="http://www.w3.org/2000/svg"
   xmlns:svg="http://www.w3.org/2000/svg">
  <defs
     id="defs1" />
  <sodipodi:namedview
     id="namedview1"
     pagecolor="#505050"
     bordercolor="#eeeeee"
     borderopacity="1"
     inkscape:showpageshadow="0"
     inkscape:pageopacity="0"
     inkscape:pagecheckerboard="0"
     inkscape:deskcolor="#d1d1d1"
     inkscape:zoom="16.1236"
     inkscape:cx="11.597906"
     inkscape:cy="6.5432039"
     inkscape:window-width="1202"
     inkscape:window-height="1080"
     inkscape:window-x="979"
     inkscape:window-y="0"
     inkscape:window-maximized="0"
     inkscape:current-layer="svg1" />
  <path
     d="m 479.37,-124.78 q -147.28,0 -251.72,-103.37 Q 123.22,-331.52 124.78,-480 h 97.44 q 2.56,107.17 76.86,182.2 74.3,75.02 180.35,75.02 107.48,0 182.35,-74.81 74.87,-74.8 74.87,-182.19 0,-107.39 -74.87,-182.42 -74.87,-75.02 -182.35,-75.02 -52.21,0 -100.19,20.7 -47.98,20.69 -85.28,58.91 h 91.17 V -576 H 129.87 v -254.13 h 80.48 v 121.52 q 50.73,-60.96 120.5,-93.78 69.78,-32.83 148.58,-32.83 73.91,0 138.46,28.01 64.55,28.02 112.64,76.11 48.1,48.09 76.11,112.65 28.01,64.56 28.01,138.48 0,73.93 -28.01,138.45 -28.01,64.53 -76.11,112.62 -48.09,48.09 -112.66,76.11 -64.56,28.01 -138.5,28.01 z"
     id="path2" />
</svg>
