<?xml version="1.0" encoding="UTF-8" standalone="no"?>
<svg
   height="20px"
   viewBox="0 -960 960 960"
   width="20px"
   fill="#FFFFFF"
   version="1.1"
   id="svg1"
   sodipodi:docname="remove_alarm.svg"
   inkscape:version="1.4.2 (ebf0e940d0, 2025-05-08)"
   xmlns:inkscape="http://www.inkscape.org/namespaces/inkscape"
   xmlns:sodipodi="http://sodipodi.sourceforge.net/DTD/sodipodi-0.dtd"
   xmlns="http://www.w3.org/2000/svg"
   xmlns:svg="http://www.w3.org/2000/svg">
  <defs
     id="defs1" />
  <sodipodi:namedview
     id="namedview1"
     pagecolor="#505050"
     bordercolor="#eeeeee"
     borderopacity="1"
     inkscape:showpageshadow="0"
     inkscape:pageopacity="0"
     inkscape:pagecheckerboard="0"
     inkscape:deskcolor="#d1d1d1"
     inkscape:zoom="34.55"
     inkscape:cx="10"
     inkscape:cy="10"
     inkscape:window-width="1882"
     inkscape:window-height="1080"
     inkscape:window-x="38"
     inkscape:window-y="0"
     inkscape:window-maximized="0"
     inkscape:current-layer="svg1" />
  <path
     id="path1"
     d="m 601.7,-437.78 v -78.79 H 358.3 v 78.79 z m -428.92,241 v -98 H 214 v -220.78 q 0,-94.35 56.61,-167.42 56.61,-73.06 148.39,-90.76 v -48.48 q 0,-25.41 17.79,-43.21 17.79,-17.79 43.21,-17.79 25.42,0 43.21,17.79 17.79,17.8 17.79,43.21 v 48.48 q 92.35,17.7 148.68,90.48 56.32,72.78 56.32,167.7 v 220.78 h 41.22 v 98 z M 480,-489.17 Z m 0.35,418.61 q -32.58,0 -55.58,-22.98 -22.99,-22.98 -22.99,-55.24 h 157 q 0,32.82 -23.04,55.52 -23.03,22.7 -55.39,22.7 z M 312,-294.78 h 336 v -220.78 q 0,-70 -49,-119 -49,-49 -119,-49 -70,0 -119,49 -49,49 -49,119 z" />
</svg>
